<svg xmlns:dc="http://purl.org/dc/elements/1.1/" xmlns:cc="http://creativecommons.org/ns#" xmlns:rdf="http://www.w3.org/1999/02/22-rdf-syntax-ns#" xmlns:svg="http://www.w3.org/2000/svg" xmlns="http://www.w3.org/2000/svg" xmlns:sodipodi="http://sodipodi.sourceforge.net/DTD/sodipodi-0.dtd" xmlns:inkscape="http://www.inkscape.org/namespaces/inkscape" id="svg3336" version="1.1" inkscape:version="0.91 r13725" sodipodi:docname="freesite.svg" viewBox="67.14 280.93 464.1 595.39">
  <defs id="defs3338"/>
  <sodipodi:namedview id="base" pagecolor="#ffffff" bordercolor="#666666" borderopacity="1.0" inkscape:pageopacity="0.0" inkscape:pageshadow="2" inkscape:zoom="1" inkscape:cx="168.12265" inkscape:cy="501.13856" inkscape:document-units="px" inkscape:current-layer="layer1" showgrid="false" inkscape:window-width="1920" inkscape:window-height="1017" inkscape:window-x="1912" inkscape:window-y="32" inkscape:window-maximized="1"/>
  <metadata id="metadata3341">
    <rdf:RDF>
      <cc:Work rdf:about="">
        <dc:format>image/svg+xml</dc:format>
        <dc:type rdf:resource="http://purl.org/dc/dcmitype/StillImage"/>
        <dc:title/>
      </cc:Work>
    </rdf:RDF>
  </metadata>
  <g inkscape:label="Taso 1" inkscape:groupmode="layer" id="layer1">
    <path style="opacity:1;fill:#007bff;fill-opacity:1;stroke:#74bfe2;stroke-width:0;stroke-miterlimit:4;stroke-dasharray:none;stroke-opacity:1" d="m 527.85714,557.71936 c 0,152.86452 -102.42011,-162.50001 -229.64285,-162.50001 -127.22274,0 -231.071446,315.36454 -231.071446,162.50001 0,-152.86453 103.134416,-276.78571 230.357156,-276.78571 127.22274,10e-6 230.35714,123.92119 230.35714,276.78571 z" id="path3346" inkscape:connector-curvature="0" sodipodi:nodetypes="sssss"/>
    <path style="opacity:1;fill:#0093ff;fill-opacity:1;stroke:#74bfe2;stroke-width:0;stroke-miterlimit:4;stroke-dasharray:none;stroke-opacity:1" d="m 528.21429,628.4151 c 0,152.86452 -102.42011,-162.50001 -229.64286,-162.50001 -127.22274,0 -231.071434,315.36454 -231.071434,162.50001 0,-152.86453 103.134404,-276.78571 230.357144,-276.78571 127.22275,10e-6 230.35715,123.92119 230.35715,276.78571 z" id="path3346-1" inkscape:connector-curvature="0" sodipodi:nodetypes="sssss"/>
    <path style="opacity:1;fill:#00aaff;fill-opacity:1;stroke:#74bfe2;stroke-width:0;stroke-miterlimit:4;stroke-dasharray:none;stroke-opacity:1" d="m 528.92858,695.55796 c 0,152.86452 -102.42011,-162.50001 -229.64286,-162.50001 -127.22274,0 -231.071441,315.36454 -231.071441,162.50001 0,-152.86453 103.134411,-276.78571 230.357151,-276.78571 127.22275,1e-5 230.35715,123.92119 230.35715,276.78571 z" id="path3346-1-9" inkscape:connector-curvature="0" sodipodi:nodetypes="sssss"/>
    <path style="opacity:1;fill:#00c6ff;fill-opacity:1;stroke:#74bfe2;stroke-width:0;stroke-miterlimit:4;stroke-dasharray:none;stroke-opacity:1" d="m 529.35715,759.84367 c 0,152.86452 -102.42011,-162.50001 -229.64286,-162.50001 -127.22274,0 -231.07144,315.36454 -231.07144,162.50001 0,-152.86453 103.13441,-276.7857 230.35715,-276.7857 127.22275,10e-6 230.35715,123.92118 230.35715,276.7857 z" id="path3346-1-9-7" inkscape:connector-curvature="0" sodipodi:nodetypes="sssss"/>
    <path style="opacity:1;fill:#00dcff;fill-opacity:1;stroke:#74bfe2;stroke-width:0;stroke-miterlimit:4;stroke-dasharray:none;stroke-opacity:1" d="m 531.24149,834.50348 c 0,152.86452 -102.42011,-162.50001 -229.64286,-162.50001 -127.22274,0 -231.071435,315.36454 -231.071435,162.50001 0,-152.86453 103.134405,-276.7857 230.357145,-276.7857 127.22275,1e-5 230.35715,123.92118 230.35715,276.7857 z" id="path3346-1-9-7-7" inkscape:connector-curvature="0" sodipodi:nodetypes="sssss"/>
  </g>
</svg>