<?xml version="1.0" encoding="UTF-8"?>
<svg version="1.1" xmlns="http://www.w3.org/2000/svg" width="1938" height="2485">
<path d="M0 0 C1.61298652 -0.00702267 3.22597276 -0.01410948 4.83895874 -0.02125549 C9.9655599 -0.04065471 15.09211583 -0.04568968 20.21875 -0.046875 C21.09234413 -0.04731686 21.96593826 -0.04775871 22.86600494 -0.04821396 C49.26472148 -0.05521663 75.45717216 0.26074152 101.71875 3.203125 C103.37236416 3.38212873 105.02601103 3.56083061 106.6796875 3.73925781 C184.91517408 12.28956889 262.02636852 31.32119095 438.83398438 113.49316406 C441.62586608 115.14806754 444.42786286 116.78411888 447.234375 118.4140625 C466.6506997 129.72019012 485.65333833 141.68752051 503.86035156 154.86230469 C505.66776162 156.16633727 507.48409042 157.45664757 509.3046875 158.7421875 C518.23863511 165.05803715 527.00078495 171.59314633 535.71875 178.203125 C536.2844873 178.63093262 536.85022461 179.05874023 537.43310547 179.49951172 C550.66043624 189.51636389 563.48372309 200.03788507 576.09472656 210.81738281 C577.78589221 212.26041592 579.48249619 213.69687317 581.1796875 215.1328125 C588.67411385 221.49146849 595.95992247 228.03548757 603.14404297 234.74169922 C604.7028356 236.18835545 606.27261699 237.62184404 607.84765625 239.05078125 C613.52400783 244.20234485 619.03064808 249.47753533 624.41796875 254.93359375 C626.47917064 256.96679969 628.58481656 258.88111111 630.78125 260.765625 C636.58482332 265.75014563 642.00445131 271.13079937 646.96875 276.953125 C650.20216704 280.73048135 653.68598539 284.20967969 657.21875 287.703125 C661.27968609 291.72353165 665.22168211 295.76536679 668.921875 300.125 C670.78889476 302.28424894 672.71822906 304.37909188 674.66015625 306.47094727 C679.49460776 311.6800029 684.07990848 317.01644995 688.5390625 322.5546875 C690.69632399 325.17587619 692.93186 327.69466781 695.21875 330.203125 C699.92288303 335.37848379 704.33772747 340.75321736 708.71875 346.203125 C709.6444817 347.34769633 710.57026529 348.49222569 711.49609375 349.63671875 C721.55202164 362.10245463 731.26124968 374.82421619 740.78125 387.703125 C741.29800293 388.40083008 741.81475586 389.09853516 742.34716797 389.81738281 C752.51880999 403.64333911 762.22258744 417.7824215 771.71875 432.078125 C772.2419986 432.86471497 772.76524719 433.65130493 773.30435181 434.46173096 C785.67324667 453.06257611 797.49280337 471.88789329 808.71875 491.203125 C809.47671875 492.50636719 809.47671875 492.50636719 810.25 493.8359375 C852.62396261 566.88688345 887.09038383 643.93115358 980.61160278 1079.10107422 C980.68520449 1080.54501775 980.76399818 1081.98870312 980.84713745 1083.43212891 C982.0293939 1104.07592249 981.9061718 1124.74705614 981.90405273 1145.41699219 C981.90397165 1149.59346869 981.91090024 1153.7698351 981.92456055 1157.94628906 C982.02240629 1188.37280407 981.73069461 1218.61316719 977.71875 1248.828125 C977.55119219 1250.15353348 977.38453488 1251.47905609 977.21875 1252.8046875 C977.05375 1254.1040625 976.88875 1255.4034375 976.71875 1256.7421875 C976.55914795 1258.0003125 976.3995459 1259.2584375 976.23510742 1260.5546875 C975.90580625 1262.88143771 975.52318364 1265.20168638 975.0715332 1267.5078125 C973.19463224 1277.57760614 974.28129078 1286.87400119 975.53353882 1296.93933105 C976.18017826 1302.16814663 976.75878824 1307.40461132 977.34375 1312.640625 C977.46360764 1313.70351746 977.58346527 1314.76640991 977.70695496 1315.86151123 C986.07568447 1390.92974404 988.49132193 1469.73466212 979.04003906 1544.76708984 C978.9095668 1545.81669891 978.9095668 1545.81669891 978.77645874 1546.88751221 C978.54257236 1548.74636029 978.29882363 1550.60396032 978.05419922 1552.46142578 C977.31810382 1560.67205025 977.82919613 1568.65441124 978.70703125 1576.83203125 C978.92007152 1578.91564158 979.13261466 1580.99930277 979.34472656 1583.08300781 C979.45691528 1584.17117798 979.569104 1585.25934814 979.68469238 1586.38049316 C982.43906661 1613.28487908 984.37806187 1640.19337065 985.71875 1667.203125 C985.77515656 1668.31714691 985.77515656 1668.31714691 985.83270264 1669.45367432 C988.39880994 1720.62416621 988.45041217 1772.87411073 982.04003906 1823.76660156 C980.41600536 1836.66386336 980.94390467 1848.46946674 982.25717163 1861.3586731 C986.30510312 1901.52293352 988.2265992 1941.84560659 988.71875 1982.203125 C988.73534668 1983.45657715 988.75194336 1984.7100293 988.76904297 1986.00146484 C988.85738624 1993.73749971 988.8267724 2001.46746232 988.71875 2009.203125 C988.7058493 2010.21294434 988.7058493 2010.21294434 988.69268799 2011.24316406 C988.44480436 2030.23072721 987.74886808 2049.14339697 986.28125 2068.078125 C986.21980804 2068.8777063 986.15836609 2069.6772876 986.09506226 2070.50109863 C985.52184332 2077.84399991 984.89734229 2085.1503396 983.84475708 2092.44160461 C982.6988193 2100.52800002 982.75432857 2108.09316391 983.71875 2116.203125 C983.81142151 2117.00655334 983.90409302 2117.80998169 983.99957275 2118.63775635 C984.55850974 2123.45344382 985.14160732 2128.26587858 985.73730469 2133.07714844 C988.18267033 2152.83986578 990.34950923 2172.60489736 991.96875 2192.453125 C992.04533844 2193.36945709 992.12192688 2194.28578918 992.20083618 2195.22988892 C992.77912925 2202.21655394 993.26744114 2209.2071765 993.71875 2216.203125 C993.76149551 2216.85234547 993.80424103 2217.50156593 993.84828186 2218.17045975 C995.60867092 2245.01283061 996.03699614 2271.78911988 995.97949219 2298.68481445 C995.9680479 2304.08161531 995.97491783 2309.47821996 995.98636913 2314.87501431 C996.03932136 2344.25719858 995.77482117 2373.58629295 991.90625 2402.765625 C991.82260193 2403.41193878 991.73895386 2404.05825256 991.652771 2404.72415161 C984.17253906 2462.15227203 984.17253906 2462.15227203 963.02734375 2478.51171875 C956.59013787 2482.52975871 949.00965092 2482.03364093 941.71875 2481.203125 C920.55023993 2475.98316286 900.30087144 2456.84550552 886.546875 2440.34765625 C884.56863107 2438.02702394 882.5055003 2435.80528351 880.42260742 2433.57885742 C874.57544853 2427.32663789 869.07219752 2420.88624374 863.71875 2414.203125 C862.68879505 2412.94034887 861.65745246 2411.67870373 860.625 2410.41796875 C853.8378072 2402.12406924 847.18028327 2393.75430795 840.71875 2385.203125 C840.16461426 2384.47109863 839.61047852 2383.73907227 839.03955078 2382.98486328 C830.65665652 2371.89853631 822.41746247 2360.71858169 814.31591797 2349.42529297 C812.69618101 2347.17172437 811.06991541 2344.92301755 809.44140625 2342.67578125 C797.9510199 2326.81826307 786.71378317 2310.78663313 775.4921875 2294.73828125 C773.75641367 2292.2569658 772.01912486 2289.77671926 770.28125 2287.296875 C759.10477593 2271.34706544 747.94489221 2255.38524032 736.9296875 2239.32348633 C730.93225616 2230.58718379 724.86445433 2221.89960082 718.80810547 2213.20410156 C716.74704201 2210.24376129 714.68765457 2207.28226319 712.62890625 2204.3203125 C701.02248198 2187.62268801 689.38430907 2170.94795811 677.64453125 2154.34375 C675.67991134 2151.56507556 673.71920993 2148.7837008 671.76171875 2146 C665.03328324 2136.43685352 658.22045516 2126.93795538 651.35986328 2117.46923828 C648.64226816 2113.71667686 645.93087991 2109.95963707 643.21875 2106.203125 C642.68185547 2105.45998047 642.14496094 2104.71683594 641.59179688 2103.95117188 C638.89297714 2100.21559065 636.1963033 2096.47849473 633.50390625 2092.73828125 C621.67122016 2076.30828504 609.64682139 2060.04124978 597.34765625 2043.95703125 C594.49171144 2040.22120614 591.65804304 2036.47040615 588.84375 2032.703125 C579.64471418 2020.40309594 570.16589283 2008.31289195 560.71875 1996.203125 C560.20602539 1995.54570313 559.69330078 1994.88828125 559.16503906 1994.2109375 C553.90465657 1987.47205548 548.59696073 1980.78095094 543.1640625 1974.1796875 C540.16782367 1970.53250861 537.19320598 1966.86807205 534.21875 1963.203125 C533.09512583 1961.82025258 531.97142923 1960.437439 530.84765625 1959.0546875 C528.9993159 1956.78023442 527.15289845 1954.50429375 525.30859375 1952.2265625 C520.68536492 1946.53772557 515.95293062 1940.9541234 511.16650391 1935.40283203 C508.06401834 1931.79729422 505.02398192 1928.15095083 502.03125 1924.453125 C498.43119833 1920.01978831 494.67971513 1915.75799154 490.8359375 1911.53515625 C488.93823831 1909.44488611 487.07141585 1907.33326385 485.21875 1905.203125 C481.82380061 1901.30522015 478.36209116 1897.46965443 474.8984375 1893.6328125 C473.02729906 1891.5470632 471.17950169 1889.44494872 469.34375 1887.328125 C465.05811668 1882.41196172 460.6345287 1877.62288919 456.21435547 1872.828125 C454.69285563 1871.17499034 453.17614536 1869.5175634 451.66015625 1867.859375 C446.54333434 1862.27398561 441.39415781 1856.76714254 435.94921875 1851.49609375 C434.12359403 1849.61931317 432.43283334 1847.71512135 430.734375 1845.7265625 C426.05678884 1840.34155784 420.9993734 1835.33404706 415.94897461 1830.30297852 C414.28448723 1828.6438518 412.62541553 1826.97944449 410.96679688 1825.31445312 C405.90820084 1820.25302182 400.81610016 1815.28679994 395.37084961 1810.63696289 C393.03277566 1808.60777591 390.8775842 1806.42030607 388.71875 1804.203125 C385.24966869 1800.69719458 381.71595673 1797.37513237 377.96875 1794.171875 C375.63000281 1792.12547121 373.35834486 1790.01934716 371.08764648 1787.89819336 C365.76027436 1782.92355562 360.33980403 1778.17029536 354.65234375 1773.60546875 C351.16970703 1770.75350925 347.79113707 1767.79470375 344.40625 1764.828125 C337.97683441 1759.21688072 331.3773501 1753.88843139 324.62011719 1748.67919922 C322.57092663 1747.08836638 320.53870322 1745.47740188 318.5078125 1743.86328125 C309.24792176 1736.5331297 299.76980936 1729.68308765 289.97265625 1723.08984375 C286.65559886 1720.8551109 283.41961983 1718.54004056 280.21875 1716.140625 C272.3580178 1710.36884314 264.02421043 1705.30258761 255.71875 1700.203125 C254.86877441 1699.68057129 254.01879883 1699.15801758 253.14306641 1698.61962891 C238.05221784 1689.39570658 222.52169111 1681.13626966 206.71875 1673.203125 C205.33671387 1672.50509766 205.33671387 1672.50509766 203.92675781 1671.79296875 C116.01058634 1627.65371443 18.30303049 1619.40879625 -75.02099609 1650.34204102 C-105.86911471 1660.85498005 -135.16209332 1674.8067079 -163.28125 1691.203125 C-165.18228165 1692.3007986 -167.08332327 1693.39845493 -168.984375 1694.49609375 C-180.71816865 1701.31073961 -192.10663099 1708.50869102 -203.28125 1716.203125 C-204.06677246 1716.74018066 -204.85229492 1717.27723633 -205.66162109 1717.83056641 C-223.93346022 1730.34157394 -241.50600902 1743.72566187 -258.58984375 1757.81152344 C-261.01802601 1759.80930619 -263.46411415 1761.78493924 -265.90625 1763.765625 C-275.44627585 1771.58672727 -284.76150585 1779.64914233 -293.8515625 1787.98828125 C-295.88640415 1789.84319317 -297.94446247 1791.65741298 -300.03125 1793.453125 C-308.78964452 1801.07148056 -317.27038964 1809.06762695 -325.39868164 1817.35302734 C-327.16666418 1819.09051557 -328.98670832 1820.70003836 -330.875 1822.3046875 C-335.92172455 1826.6937751 -340.62688675 1831.40243456 -345.34375 1836.140625 C-346.20291016 1836.99591797 -347.06207031 1837.85121094 -347.94726562 1838.73242188 C-352.35711266 1843.14900664 -356.59928764 1847.63575735 -360.66577148 1852.36938477 C-363.72791091 1855.84523927 -367.07299763 1859.03643594 -370.38671875 1862.26953125 C-373.92803235 1865.75939719 -377.23197652 1869.38880104 -380.48242188 1873.15039062 C-384.09690826 1877.27506509 -387.90475768 1881.22216816 -391.67578125 1885.203125 C-395.44388118 1889.19746696 -399.11430102 1893.25692222 -402.71386719 1897.40380859 C-404.66093954 1899.63899913 -406.65619469 1901.82782503 -408.65625 1904.015625 C-411.78547827 1907.47842582 -414.78625349 1911.00991503 -417.71875 1914.640625 C-420.79461588 1918.44400003 -423.96878166 1922.10395152 -427.28125 1925.703125 C-431.34108645 1930.11952644 -435.17448821 1934.66476022 -438.94140625 1939.33203125 C-441.46858323 1942.43299132 -444.0574012 1945.47487593 -446.65625 1948.515625 C-450.96088733 1953.56513671 -455.0847375 1958.73310136 -459.15576172 1963.97192383 C-462.27231746 1967.96525289 -465.48667808 1971.85575292 -468.78125 1975.703125 C-474.00311286 1981.80858788 -478.97239469 1988.08998594 -483.90185547 1994.43261719 C-485.74452482 1996.79775668 -487.60100481 1999.15187843 -489.45727539 2001.50634766 C-494.71328204 2008.17561758 -499.90821126 2014.8898944 -505.07373047 2021.62939453 C-507.01345838 2024.15739415 -508.96078369 2026.67954015 -510.90625 2029.203125 C-512.69984593 2031.53498033 -514.49096715 2033.86872527 -516.28125 2036.203125 C-516.86680664 2036.96657227 -517.45236328 2037.73001953 -518.05566406 2038.51660156 C-527.01391929 2050.20742066 -535.85575835 2061.97424411 -544.55908203 2073.85595703 C-546.30415613 2076.23434411 -548.05532617 2078.60811634 -549.80859375 2080.98046875 C-557.16136835 2090.93060819 -564.44430018 2100.9281862 -571.67236328 2110.96923828 C-574.37137139 2114.71672298 -577.07671277 2118.45962989 -579.78125 2122.203125 C-580.31685547 2122.94498047 -580.85246094 2123.68683594 -581.40429688 2124.45117188 C-584.12215121 2128.21561272 -586.84219731 2131.978436 -589.56640625 2135.73828125 C-596.37742797 2145.14359186 -603.11752757 2154.59534893 -609.79736328 2164.09423828 C-612.28773791 2167.63353674 -614.78487997 2171.16805413 -617.28125 2174.703125 C-618.28387338 2176.12368436 -619.28647756 2177.54425726 -620.2890625 2178.96484375 C-622.26194912 2181.75987343 -624.23598097 2184.55408882 -626.2109375 2187.34765625 C-633.33958603 2197.43373379 -640.43018572 2207.54603525 -647.5078125 2217.66796875 C-649.24358633 2220.1492842 -650.98087514 2222.62953074 -652.71875 2225.109375 C-658.96545433 2234.02435002 -665.19491743 2242.95096386 -671.40625 2251.890625 C-676.52443394 2259.25578679 -681.66390776 2266.6047807 -686.84643555 2273.92480469 C-690.06103983 2278.46702698 -693.25372562 2283.02401006 -696.4375 2287.58789062 C-702.06503312 2295.65278733 -707.75294741 2303.66796379 -713.52929688 2311.62695312 C-717.13635286 2316.6014471 -720.69017325 2321.61024015 -724.21875 2326.640625 C-730.17919528 2335.12332744 -736.32615546 2343.4626834 -742.49902344 2351.79150391 C-744.26982231 2354.18766161 -746.03096172 2356.59060744 -747.7890625 2358.99609375 C-758.92162008 2374.21447889 -770.45872578 2389.074784 -782.3984375 2403.66796875 C-784.72321332 2406.51044675 -787.00936134 2409.38061157 -789.28125 2412.265625 C-799.0101497 2424.43692629 -809.531661 2435.93290063 -820.28125 2447.203125 C-821.10496094 2448.069375 -821.92867187 2448.935625 -822.77734375 2449.828125 C-836.65975181 2464.08172044 -855.55209529 2481.02144325 -876.40625 2481.578125 C-884.44881783 2481.60926757 -889.96378961 2479.75920752 -896.1640625 2474.65234375 C-906.02044812 2464.68546053 -910.85555533 2449.47338231 -914.28125 2436.203125 C-914.54349365 2435.20297363 -914.54349365 2435.20297363 -914.81103516 2434.18261719 C-917.54174886 2423.43890949 -919.02639835 2412.50060546 -920.40625 2401.515625 C-920.64420288 2399.66916382 -920.64420288 2399.66916382 -920.88696289 2397.78540039 C-924.36917824 2368.50587975 -924.65244633 2339.15950186 -924.59910583 2309.71595383 C-924.59367562 2306.59791696 -924.59130073 2303.47988767 -924.5892334 2300.36184692 C-924.55570664 2267.88681344 -923.91341265 2235.5863627 -921.28125 2203.203125 C-921.19685669 2202.16214661 -921.11246338 2201.12116821 -921.0255127 2200.04864502 C-920.20839136 2190.06158542 -919.3456031 2180.07941851 -918.38972473 2170.10464478 C-918.08198458 2166.88229617 -917.78502415 2163.65900889 -917.49020386 2160.43545532 C-917.35280623 2158.96758632 -917.20967921 2157.50024032 -917.06033325 2156.03353882 C-916.26318348 2148.17094639 -915.8540582 2141.84203527 -918.96875 2134.515625 C-932.39607172 2098.658882 -932.42707014 2056.09439409 -932.44921875 2018.203125 C-932.45330423 2016.44590714 -932.45758696 2014.68868972 -932.46205139 2012.93147278 C-932.47352339 2007.35534565 -932.47223963 2001.77926007 -932.46875 1996.203125 C-932.46848312 1995.25165462 -932.46821625 1994.30018425 -932.46794128 1993.31988144 C-932.45392993 1953.5833096 -931.03018258 1914.29779963 -927.60253906 1874.70043945 C-927.51555756 1873.68207001 -927.42857605 1872.66370056 -927.33895874 1871.61447144 C-927.17678793 1869.72594723 -927.01081331 1867.83774349 -926.83999634 1865.94998169 C-926.15011021 1857.89716169 -925.58359908 1849.66455485 -927.05078125 1841.671875 C-927.21602295 1840.71458496 -927.38126465 1839.75729492 -927.55151367 1838.77099609 C-927.73045166 1837.75859863 -927.90938965 1836.74620117 -928.09375 1835.703125 C-929.85220562 1825.02080081 -931.05251478 1814.35834198 -931.96875 1803.578125 C-932.02914459 1802.88855713 -932.08953918 1802.19898926 -932.15176392 1801.48852539 C-934.26764255 1777.07392583 -934.48764938 1752.62856831 -934.46875 1728.140625 C-934.46848312 1727.36341599 -934.46821625 1726.58620697 -934.46794128 1725.78544617 C-934.45091221 1686.1572709 -932.73748278 1646.85847674 -929.43339539 1607.36203003 C-929.03979091 1602.6431521 -928.65922172 1597.92327638 -928.28125 1593.203125 C-928.21259735 1592.37016907 -928.1439447 1591.53721313 -928.07321167 1590.67901611 C-927.42639629 1582.66337556 -926.84287167 1575.17838334 -928.96875 1567.328125 C-945.64724441 1494.49333028 -938.96214621 1411.85844003 -933.34375 1338.078125 C-933.25944733 1336.97060883 -933.17514465 1335.86309265 -933.08828735 1334.72201538 C-932.30034768 1324.50425656 -931.49551934 1314.30186401 -930.1796875 1304.13671875 C-928.36026708 1289.88297526 -928.48427672 1278.31386198 -931.87109375 1264.3203125 C-940.06789895 1230.41559211 -938.61552757 1193.41826263 -938.54199219 1158.7644043 C-938.53066343 1153.37677159 -938.53733943 1147.98933796 -938.54886913 1142.60171223 C-938.59762283 1115.7442242 -938.02993403 1089.00605184 -936.28125 1062.203125 C-936.20328186 1061.00791229 -936.12531372 1059.81269958 -936.04498291 1058.58126831 C-935.59000756 1051.84454658 -935.05500948 1045.11708267 -934.46875 1038.390625 C-934.38476959 1037.40772491 -934.30078918 1036.42482483 -934.21426392 1035.41213989 C-929.76857263 983.61225123 -922.45294669 932.18826181 -912.28125 881.203125 C-912.11236267 880.35397522 -911.94347534 879.50482544 -911.76947021 878.62994385 C-893.12899085 785.20008813 -864.29596246 693.2350888 -815.28125 586.203125 C-814.52400635 584.60621826 -814.52400635 584.60621826 -813.75146484 582.97705078 C-790.14866435 533.20279831 -763.64829271 484.99585493 -733.18457031 439.07568359 C-731.18469014 436.05739343 -729.19753836 433.03095041 -727.2109375 430.00390625 C-720.42792432 419.70529228 -713.51664664 409.58974937 -706.015625 399.80078125 C-703.3083579 396.26586937 -700.72334215 392.65305043 -698.15625 389.015625 C-693.37709973 382.26847774 -688.3722651 375.71691428 -683.28125 369.203125 C-682.85231445 368.65188965 -682.42337891 368.1006543 -681.98144531 367.53271484 C-671.49592485 354.058549 -660.752519 340.79631449 -649.65820312 327.81835938 C-648.24003654 326.15477957 -646.83049683 324.48416624 -645.421875 322.8125 C-639.51413715 315.82776936 -633.42408202 309.05619583 -627.15014648 302.39819336 C-624.21223998 299.2797199 -621.31649504 296.14772332 -618.53125 292.890625 C-615.19862872 289.01098256 -611.56905679 285.45704214 -607.90625 281.890625 C-605.84711202 279.78245993 -603.91749587 277.65484902 -601.99609375 275.42578125 C-598.13238987 270.97055549 -594.02360558 266.7979071 -589.84375 262.640625 C-589.13154297 261.92455078 -588.41933594 261.20847656 -587.68554688 260.47070312 C-583.61209402 256.40464982 -579.43293156 252.53490261 -575.07397461 248.77758789 C-572.6981006 246.69097323 -570.48658124 244.46805979 -568.28125 242.203125 C-564.7694845 238.65394343 -561.19116099 235.28344043 -557.3984375 232.0390625 C-554.87525545 229.8510633 -552.42570481 227.59019387 -549.96875 225.328125 C-545.52874216 221.27791208 -540.96190719 217.44778378 -536.28515625 213.67578125 C-532.78457522 210.79428867 -529.37867675 207.81567938 -525.96875 204.828125 C-519.54035123 199.21797454 -512.94244241 193.88844766 -506.18701172 188.67919922 C-504.12797715 187.08441021 -502.0809611 185.47500209 -500.03515625 183.86328125 C-489.64484264 175.69466686 -479.06359489 167.84556858 -468.28125 160.203125 C-467.46865723 159.62530273 -466.65606445 159.04748047 -465.81884766 158.45214844 C-454.48757383 150.40577948 -443.02528815 142.63302668 -431.28125 135.203125 C-430.40549316 134.64544434 -429.52973633 134.08776367 -428.62744141 133.51318359 C-354.42191564 86.30313844 -273.99564034 49.97058506 0 0 Z " fill="#FF2300" transform="translate(940.28125,1.796875)"/>
<path d="M0 0 C1.61298652 -0.00702267 3.22597276 -0.01410948 4.83895874 -0.02125549 C9.9655599 -0.04065471 15.09211583 -0.04568968 20.21875 -0.046875 C21.09234413 -0.04731686 21.96593826 -0.04775871 22.86600494 -0.04821396 C49.26472148 -0.05521663 75.45717216 0.26074152 101.71875 3.203125 C103.37236416 3.38212873 105.02601103 3.56083061 106.6796875 3.73925781 C184.91517408 12.28956889 262.02636852 31.32119095 438.83398438 113.49316406 C441.62586608 115.14806754 444.42786286 116.78411888 447.234375 118.4140625 C466.6506997 129.72019012 485.65333833 141.68752051 503.86035156 154.86230469 C505.66776162 156.16633727 507.48409042 157.45664757 509.3046875 158.7421875 C518.23863511 165.05803715 527.00078495 171.59314633 535.71875 178.203125 C536.2844873 178.63093262 536.85022461 179.05874023 537.43310547 179.49951172 C550.66043624 189.51636389 563.48372309 200.03788507 576.09472656 210.81738281 C577.78589221 212.26041592 579.48249619 213.69687317 581.1796875 215.1328125 C588.67411385 221.49146849 595.95992247 228.03548757 603.14404297 234.74169922 C604.7028356 236.18835545 606.27261699 237.62184404 607.84765625 239.05078125 C613.52400783 244.20234485 619.03064808 249.47753533 624.41796875 254.93359375 C626.47917064 256.96679969 628.58481656 258.88111111 630.78125 260.765625 C636.58482332 265.75014563 642.00445131 271.13079937 646.96875 276.953125 C650.20216704 280.73048135 653.68598539 284.20967969 657.21875 287.703125 C661.27968609 291.72353165 665.22168211 295.76536679 668.921875 300.125 C670.78889476 302.28424894 672.71822906 304.37909188 674.66015625 306.47094727 C679.49460776 311.6800029 684.07990848 317.01644995 688.5390625 322.5546875 C690.69632399 325.17587619 692.93186 327.69466781 695.21875 330.203125 C699.92288303 335.37848379 704.33772747 340.75321736 708.71875 346.203125 C709.6444817 347.34769633 710.57026529 348.49222569 711.49609375 349.63671875 C721.55202164 362.10245463 731.26124968 374.82421619 740.78125 387.703125 C741.29800293 388.40083008 741.81475586 389.09853516 742.34716797 389.81738281 C752.51880999 403.64333911 762.22258744 417.7824215 771.71875 432.078125 C772.2419986 432.86471497 772.76524719 433.65130493 773.30435181 434.46173096 C785.67324667 453.06257611 797.49280337 471.88789329 808.71875 491.203125 C809.47671875 492.50636719 809.47671875 492.50636719 810.25 493.8359375 C852.62396261 566.88688345 887.09038383 643.93115358 980.61160278 1079.10107422 C980.68520449 1080.54501775 980.76399818 1081.98870312 980.84713745 1083.43212891 C982.0293939 1104.07592249 981.9061718 1124.74705614 981.90405273 1145.41699219 C981.90397165 1149.59346869 981.91090024 1153.7698351 981.92456055 1157.94628906 C982.02240629 1188.37280407 981.73069461 1218.61316719 977.71875 1248.828125 C977.55119219 1250.15353348 977.38453488 1251.47905609 977.21875 1252.8046875 C977.05375 1254.1040625 976.88875 1255.4034375 976.71875 1256.7421875 C976.55914795 1258.0003125 976.3995459 1259.2584375 976.23510742 1260.5546875 C975.90580625 1262.88143771 975.52318364 1265.20168638 975.0715332 1267.5078125 C973.19463224 1277.57760614 974.28129078 1286.87400119 975.53353882 1296.93933105 C976.18017826 1302.16814663 976.75878824 1307.40461132 977.34375 1312.640625 C977.46360764 1313.70351746 977.58346527 1314.76640991 977.70695496 1315.86151123 C986.07568447 1390.92974404 988.49132193 1469.73466212 979.04003906 1544.76708984 C978.9095668 1545.81669891 978.9095668 1545.81669891 978.77645874 1546.88751221 C978.54257236 1548.74636029 978.29882363 1550.60396032 978.05419922 1552.46142578 C977.31810382 1560.67205025 977.82919613 1568.65441124 978.70703125 1576.83203125 C978.92007152 1578.91564158 979.13261466 1580.99930277 979.34472656 1583.08300781 C979.45691528 1584.17117798 979.569104 1585.25934814 979.68469238 1586.38049316 C982.43906661 1613.28487908 984.37806187 1640.19337065 985.71875 1667.203125 C985.77515656 1668.31714691 985.77515656 1668.31714691 985.83270264 1669.45367432 C988.33461911 1719.34414325 988.14132019 1770.07346451 982.71875 1819.765625 C982.59336853 1820.92862122 982.59336853 1820.92862122 982.4654541 1822.1151123 C982.22788799 1824.27225907 981.97679626 1826.42724833 981.71875 1828.58203125 C981.574375 1829.7944751 981.43 1831.00691895 981.28125 1832.25610352 C980.71875 1835.203125 980.71875 1835.203125 978.71875 1838.203125 C978.64881836 1837.65603378 978.57888672 1837.10894257 978.50683594 1836.54527283 C966.1408197 1740.05816371 945.85424848 1645.97454633 862.71875 1427.203125 C862.17927734 1426.06246582 861.63980469 1424.92180664 861.08398438 1423.74658203 C849.02282904 1398.313125 836.30636725 1373.27148932 822.25097656 1348.87353516 C820.75474307 1346.2658548 819.27685284 1343.64867398 817.8046875 1341.02734375 C799.57717396 1308.65025312 779.21334288 1277.4962331 757.71875 1247.203125 C757.16026367 1246.41437988 756.60177734 1245.62563477 756.02636719 1244.81298828 C741.56232956 1224.4357883 726.42919187 1204.40673043 710.30078125 1185.3125 C708.71875 1183.203125 708.71875 1183.203125 708.71875 1181.203125 C708.05875 1181.203125 707.39875 1181.203125 706.71875 1181.203125 C703.71875 1177.74158654 703.71875 1177.74158654 703.71875 1175.203125 C703.05875 1175.203125 702.39875 1175.203125 701.71875 1175.203125 C700.13341298 1173.48979746 698.62333785 1171.70623453 697.15625 1169.890625 C695.94775391 1168.41142578 695.94775391 1168.41142578 694.71484375 1166.90234375 C692.71875 1164.203125 692.71875 1164.203125 691.71875 1161.203125 C691.05875 1161.203125 690.39875 1161.203125 689.71875 1161.203125 C684.71875 1155.72693452 684.71875 1155.72693452 684.71875 1153.203125 C684.05875 1153.203125 683.39875 1153.203125 682.71875 1153.203125 C681.09765625 1151.5234375 681.09765625 1151.5234375 679.28125 1149.328125 C677.13474116 1146.74118778 675.55098438 1145.09128126 672.71875 1143.203125 C672.30625 1142.48125 671.89375 1141.759375 671.46875 1141.015625 C669.42214272 1137.72643473 666.96302683 1135.38566921 664.14453125 1132.75390625 C662.71875 1131.203125 662.71875 1131.203125 662.71875 1129.203125 C662.120625 1129.14125 661.5225 1129.079375 660.90625 1129.015625 C658.71875 1128.203125 658.71875 1128.203125 657.49951172 1126.08642578 C655.15062202 1122.28324682 652.19881832 1119.39710232 649.0390625 1116.2578125 C648.38928436 1115.60612091 647.73950623 1114.95442932 647.07003784 1114.2829895 C645.69905196 1112.91064659 644.32555298 1111.54081024 642.94970703 1110.17333984 C640.85085586 1108.08519462 638.76288123 1105.98660191 636.67578125 1103.88671875 C635.33918244 1102.55144162 634.00196332 1101.21678506 632.6640625 1099.8828125 C632.04306671 1099.25776825 631.42207092 1098.632724 630.78225708 1097.98873901 C627.61160622 1094.85193525 624.65126742 1092.37709635 620.71875 1090.203125 C618.71875 1088.14453125 618.71875 1088.14453125 616.71875 1085.765625 C608.76685068 1076.70415833 599.70868419 1068.87489134 590.3203125 1061.33984375 C587.76888271 1059.24430006 585.33548227 1057.06349345 582.90625 1054.828125 C578.5309541 1050.84557219 573.97145734 1047.1849443 569.30004883 1043.56201172 C565.50353689 1040.61529895 561.76045985 1037.61506477 558.04956055 1034.5612793 C551.40718881 1029.09962624 544.65634315 1023.80660277 537.78125 1018.640625 C537.03214355 1018.07633789 536.28303711 1017.51205078 535.51123047 1016.93066406 C521.65089332 1006.58573551 507.36795069 996.83995457 492.96875 987.265625 C491.79070801 986.48167358 491.79070801 986.48167358 490.58886719 985.68188477 C461.36548392 966.25194784 431.29006687 948.72097146 399.99316406 932.86816406 C397.08740102 931.39058399 394.19407729 929.89206567 391.3046875 928.3828125 C379.68579726 922.36963433 367.78604439 917.07652838 355.78125 911.890625 C354.99669434 911.5516922 354.21213867 911.2127594 353.40380859 910.86355591 C276.62216455 877.7745056 195.81245675 856.36643277 112.71875 847.203125 C111.78933594 847.09661621 110.85992188 846.99010742 109.90234375 846.88037109 C103.8493067 846.19305105 97.79319952 845.66120148 91.71875 845.203125 C89.99374268 845.06777344 89.99374268 845.06777344 88.23388672 844.9296875 C47.26640726 841.83898432 5.6650242 841.71911336 -35.28125 845.203125 C-36.01555237 845.2639325 -36.74985474 845.32473999 -37.50640869 845.38739014 C-74.68564577 848.47748112 -111.93905714 853.69350003 -148.28125 862.203125 C-149.43542419 862.47192474 -149.43542419 862.47192474 -150.61291504 862.74615479 C-214.82902298 877.74294805 -275.84093735 899.74724861 -335.28125 928.203125 C-336.19358398 928.63931152 -337.10591797 929.07549805 -338.04589844 929.52490234 C-350.88135921 935.70181733 -363.25237832 942.6050179 -375.60791016 949.68505859 C-378.70916072 951.44611576 -381.83648133 953.15466328 -384.9699707 954.85742188 C-419.05255662 973.44436148 -451.43526491 995.68246529 -482.19140625 1019.30859375 C-486.02910368 1022.25474128 -489.89575771 1025.15719024 -493.78417969 1028.03588867 C-500.48619549 1033.00177104 -506.93913034 1038.16893181 -513.2578125 1043.61328125 C-516.12409949 1046.06851158 -519.03350284 1048.45608353 -521.96875 1050.828125 C-526.42028808 1054.45146995 -530.70507455 1058.22276372 -534.94921875 1062.0859375 C-537.03948889 1063.98363669 -539.15111115 1065.85045915 -541.28125 1067.703125 C-545.9967964 1071.81628623 -550.64450831 1076.00150043 -555.28125 1080.203125 C-556.13710693 1080.97213135 -556.99296387 1081.7411377 -557.87475586 1082.53344727 C-567.9766729 1091.71974118 -577.60751391 1101.37602706 -587.24902344 1111.04052734 C-589.68268703 1113.47992757 -592.12087109 1115.91475269 -594.56037712 1118.34830856 C-596.92550972 1120.7089308 -599.28679575 1123.07338538 -601.6484375 1125.4375 C-602.5120993 1126.29913757 -603.37576111 1127.16077515 -604.26559448 1128.04852295 C-608.6013944 1132.40102262 -612.80048191 1136.8125716 -616.79644775 1141.48020935 C-619.16925264 1144.23353403 -621.66992265 1146.8652444 -624.15625 1149.515625 C-628.69473524 1154.38898049 -632.97473797 1159.40616477 -637.14453125 1164.6015625 C-639.24007494 1167.15299229 -641.42088155 1169.58639273 -643.65625 1172.015625 C-647.61705675 1176.36635573 -651.25084283 1180.90120396 -654.84985352 1185.54931641 C-657.93653873 1189.52479333 -661.10364698 1193.4187244 -664.33129883 1197.28051758 C-671.77884997 1206.19715208 -678.72202865 1215.40971763 -685.54003906 1224.81347656 C-687.24968799 1227.1598091 -688.97651477 1229.49224822 -690.7109375 1231.8203125 C-742.52193808 1301.40476134 -786.04620441 1377.7494584 -820.58447266 1457.30566406 C-822.05186978 1460.68360097 -823.54237423 1464.0507188 -825.04296875 1467.4140625 C-861.65382402 1549.77947295 -887.60633671 1637.68764203 -912.28125 1765.203125 C-912.44563568 1766.21158478 -912.44563568 1766.21158478 -912.61334229 1767.24041748 C-916.47505196 1790.98228471 -920.21085131 1814.77974975 -922.88671875 1838.6875 C-923.31803328 1842.53089684 -923.79530674 1846.36628602 -924.28125 1850.203125 C-927.19633296 1845.83050056 -927.44612233 1841.34553211 -928.21875 1836.203125 C-928.39059814 1835.0682666 -928.56244629 1833.9334082 -928.73950195 1832.76416016 C-930.13919758 1823.06176883 -931.1268943 1813.34262425 -931.96875 1803.578125 C-932.02932587 1802.88928223 -932.08990173 1802.20043945 -932.15231323 1801.49072266 C-934.26727999 1777.07534575 -934.48764992 1752.62927343 -934.46875 1728.140625 C-934.46848312 1727.36341599 -934.46821625 1726.58620697 -934.46794128 1725.78544617 C-934.45091221 1686.1572709 -932.73748278 1646.85847674 -929.43339539 1607.36203003 C-929.03979091 1602.6431521 -928.65922172 1597.92327638 -928.28125 1593.203125 C-928.21259735 1592.37016907 -928.1439447 1591.53721313 -928.07321167 1590.67901611 C-927.42639629 1582.66337556 -926.84287167 1575.17838334 -928.96875 1567.328125 C-945.64724441 1494.49333028 -938.96214621 1411.85844003 -933.34375 1338.078125 C-933.25944733 1336.97060883 -933.17514465 1335.86309265 -933.08828735 1334.72201538 C-932.30034768 1324.50425656 -931.49551934 1314.30186401 -930.1796875 1304.13671875 C-928.36026708 1289.88297526 -928.48427672 1278.31386198 -931.87109375 1264.3203125 C-940.06789895 1230.41559211 -938.61552757 1193.41826263 -938.54199219 1158.7644043 C-938.53066343 1153.37677159 -938.53733943 1147.98933796 -938.54886913 1142.60171223 C-938.59762283 1115.7442242 -938.02993403 1089.00605184 -936.28125 1062.203125 C-936.20328186 1061.00791229 -936.12531372 1059.81269958 -936.04498291 1058.58126831 C-935.59000756 1051.84454658 -935.05500948 1045.11708267 -934.46875 1038.390625 C-934.38476959 1037.40772491 -934.30078918 1036.42482483 -934.21426392 1035.41213989 C-929.76857263 983.61225123 -922.45294669 932.18826181 -912.28125 881.203125 C-912.11236267 880.35397522 -911.94347534 879.50482544 -911.76947021 878.62994385 C-893.12899085 785.20008813 -864.29596246 693.2350888 -815.28125 586.203125 C-814.52400635 584.60621826 -814.52400635 584.60621826 -813.75146484 582.97705078 C-790.14866435 533.20279831 -763.64829271 484.99585493 -733.18457031 439.07568359 C-731.18469014 436.05739343 -729.19753836 433.03095041 -727.2109375 430.00390625 C-720.42792432 419.70529228 -713.51664664 409.58974937 -706.015625 399.80078125 C-703.3083579 396.26586937 -700.72334215 392.65305043 -698.15625 389.015625 C-693.37709973 382.26847774 -688.3722651 375.71691428 -683.28125 369.203125 C-682.85231445 368.65188965 -682.42337891 368.1006543 -681.98144531 367.53271484 C-671.49592485 354.058549 -660.752519 340.79631449 -649.65820312 327.81835938 C-648.24003654 326.15477957 -646.83049683 324.48416624 -645.421875 322.8125 C-639.51413715 315.82776936 -633.42408202 309.05619583 -627.15014648 302.39819336 C-624.21223998 299.2797199 -621.31649504 296.14772332 -618.53125 292.890625 C-615.19862872 289.01098256 -611.56905679 285.45704214 -607.90625 281.890625 C-605.84711202 279.78245993 -603.91749587 277.65484902 -601.99609375 275.42578125 C-598.13238987 270.97055549 -594.02360558 266.7979071 -589.84375 262.640625 C-589.13154297 261.92455078 -588.41933594 261.20847656 -587.68554688 260.47070312 C-583.61209402 256.40464982 -579.43293156 252.53490261 -575.07397461 248.77758789 C-572.6981006 246.69097323 -570.48658124 244.46805979 -568.28125 242.203125 C-564.7694845 238.65394343 -561.19116099 235.28344043 -557.3984375 232.0390625 C-554.87525545 229.8510633 -552.42570481 227.59019387 -549.96875 225.328125 C-545.52874216 221.27791208 -540.96190719 217.44778378 -536.28515625 213.67578125 C-532.78457522 210.79428867 -529.37867675 207.81567938 -525.96875 204.828125 C-519.54035123 199.21797454 -512.94244241 193.88844766 -506.18701172 188.67919922 C-504.12797715 187.08441021 -502.0809611 185.47500209 -500.03515625 183.86328125 C-489.64484264 175.69466686 -479.06359489 167.84556858 -468.28125 160.203125 C-467.46865723 159.62530273 -466.65606445 159.04748047 -465.81884766 158.45214844 C-454.48757383 150.40577948 -443.02528815 142.63302668 -431.28125 135.203125 C-430.40549316 134.64544434 -429.52973633 134.08776367 -428.62744141 133.51318359 C-354.42191564 86.30313844 -273.99564034 49.97058506 0 0 Z " fill="#FF6B00" transform="translate(940.28125,1.796875)"/>
<path d="M0 0 C0.66042297 0.19319824 1.32084595 0.38639648 2.00128174 0.58544922 C6.71208517 1.96390533 11.41917945 3.35464167 16.125 4.75 C17.29546875 5.09611328 18.4659375 5.44222656 19.671875 5.79882812 C34.75406166 10.27964056 49.57004523 15.29770866 64.33349609 20.73339844 C66.90889142 21.67129822 69.49125401 22.5821715 72.08203125 23.4765625 C72.83669678 23.73743652 73.5913623 23.99831055 74.36889648 24.26708984 C76.31515865 24.93643101 78.26296928 25.60126531 80.2109375 26.265625 C84.2962671 27.74483293 88.20521483 29.57817371 92.14794922 31.39794922 C95.18016179 32.77505216 98.23405459 34.08208602 101.3046875 35.37109375 C117.39008253 42.12840122 133.14437871 49.38765704 148.7890625 57.10546875 C151.86508553 58.62186886 154.94720885 60.12499634 158.03125 61.625 C171.36404178 68.15048212 184.28839004 75.30067294 197.125 82.75 C198.04812988 83.28383301 198.97125977 83.81766602 199.92236328 84.36767578 C226.91456834 100.01277859 253.11844126 117.04352471 278.32421875 135.43652344 C279.64260957 136.39814798 280.96324155 137.35670195 282.28515625 138.31347656 C292.20667705 145.49788332 301.90198948 152.8740914 311.35546875 160.6640625 C314.93712446 163.61279675 318.58513462 166.46837171 322.25 169.3125 C328.80613173 174.42252156 335.10866786 179.79789925 341.38378906 185.24707031 C343.09753755 186.72629573 344.82343278 188.1897591 346.5546875 189.6484375 C353.07724446 195.1549968 359.44263401 200.80452154 365.6875 206.625 C366.68789307 207.55276245 366.68789307 207.55276245 367.70849609 208.49926758 C370.5950757 211.21300469 373.31669119 213.89871239 375.77734375 217.0078125 C377.87376069 219.77366003 377.87376069 219.77366003 380.31958008 220.98583984 C384.17921078 223.41292987 387.15570806 226.49510301 390.359375 229.71875 C391.03800598 230.39546753 391.71663696 231.07218506 392.41583252 231.76940918 C393.84364615 233.19586584 395.26895333 234.62483522 396.69189453 236.05615234 C398.87442036 238.24941751 401.06744648 240.43177494 403.26171875 242.61328125 C404.64907952 244.00196305 406.03582007 245.39126482 407.421875 246.78125 C408.4077359 247.76103821 408.4077359 247.76103821 409.41351318 248.76062012 C410.0179425 249.37135376 410.62237183 249.9820874 411.24511719 250.61132812 C411.77852722 251.14632935 412.31193726 251.68133057 412.86151123 252.23254395 C414.125 253.75 414.125 253.75 415.125 256.75 C416.115 257.08 417.105 257.41 418.125 257.75 C419.84375 259.4921875 419.84375 259.4921875 421.625 261.625 C424.09681 264.57235556 424.09681 264.57235556 426.78125 267.3203125 C428.125 268.75 428.125 268.75 429.125 271.75 C430.95584294 273.52939894 430.95584294 273.52939894 433.125 275.25 C437.01388889 278.41666667 437.01388889 278.41666667 438.125 281.75 C438.785 281.75 439.445 281.75 440.125 281.75 C445.125 287.22619048 445.125 287.22619048 445.125 289.75 C445.785 289.75 446.445 289.75 447.125 289.75 C448.71033702 291.46332754 450.22041215 293.24689047 451.6875 295.0625 C452.49316406 296.04863281 453.29882812 297.03476563 454.12890625 298.05078125 C456.125 300.75 456.125 300.75 457.125 303.75 C457.785 303.75 458.445 303.75 459.125 303.75 C462.125 307.21153846 462.125 307.21153846 462.125 309.75 C462.785 309.75 463.445 309.75 464.125 309.75 C465.4296875 311.19140625 465.4296875 311.19140625 467 313.3125 C469.65847479 316.8352526 472.36394935 320.30342723 475.14257812 323.73120117 C482.41849264 332.71944801 489.3610672 341.94579581 496.25341797 351.22998047 C498.04104368 353.63695576 499.83461618 356.03939727 501.62890625 358.44140625 C553.09940163 427.56122738 596.09222505 503.08336198 631.125 581.75 C631.40837219 582.38464172 631.69174438 583.01928345 631.98370361 583.67315674 C661.86084792 650.59962336 684.5484843 719.91273619 703.125 790.75 C703.42957123 791.90674225 703.42957123 791.90674225 703.74029541 793.08685303 C706.06586416 801.932791 708.1783138 810.81344265 710.125 819.75 C710.41636841 821.08529755 710.41636841 821.08529755 710.71362305 822.4475708 C731.3851604 917.46256376 742.93891901 1013.48858075 744.125 1110.75 C744.14159668 1112.00345215 744.15819336 1113.2569043 744.17529297 1114.54833984 C744.26363624 1122.28437471 744.2330224 1130.01433732 744.125 1137.75 C744.1120993 1138.75981934 744.1120993 1138.75981934 744.09893799 1139.79003906 C743.85105436 1158.77760221 743.15511808 1177.69027197 741.6875 1196.625 C741.62605804 1197.4245813 741.56461609 1198.2241626 741.50131226 1199.04797363 C740.85882092 1207.27825035 740.10349587 1215.49462866 739.15234375 1223.6953125 C739.004021 1224.98195801 738.85569824 1226.26860352 738.70288086 1227.59423828 C738.125 1230.75 738.125 1230.75 736.125 1233.75 C736.02590332 1233.08323242 735.92680664 1232.41646484 735.82470703 1231.72949219 C726.12130521 1167.33321446 712.74616413 1102.54531284 692.96972656 1040.43457031 C692.04706505 1037.50232002 691.1578302 1034.56120001 690.2734375 1031.6171875 C682.22935105 1004.91624527 673.16354567 978.47895518 662.67114258 952.63549805 C661.42255073 949.52789004 660.24162799 946.39899153 659.08680725 943.25514221 C655.73654329 934.1484771 652.03326697 925.21940047 648.1875 916.3125 C647.86685577 915.56732117 647.54621155 914.82214233 647.21585083 914.05438232 C633.39836901 881.9623579 619.04980602 849.93408895 602.43505859 819.17871094 C600.98536483 816.49113107 599.54941687 813.79641011 598.11328125 811.1015625 C590.45282516 796.78192538 582.40848643 782.71717734 574.125 768.75 C573.52429687 767.73292969 572.92359375 766.71585938 572.3046875 765.66796875 C559.01497769 743.18856599 545.07784249 721.16181928 530.125 699.75 C529.63080566 699.03972656 529.13661133 698.32945312 528.62744141 697.59765625 C516.5853946 680.30976555 504.01715183 663.41183522 491.125 646.75 C490.64434082 646.12754395 490.16368164 645.50508789 489.66845703 644.86376953 C483.87027306 637.36836084 477.9058065 630.04793973 471.75 622.84375 C469.28584036 619.9544868 466.88839 617.01481542 464.5 614.0625 C460.87665505 609.61096192 457.10536128 605.32617545 453.2421875 601.08203125 C451.34448831 598.99176111 449.47766585 596.88013885 447.625 594.75 C443.51268012 590.03403683 439.32658943 585.38646732 435.125 580.75 C434.46661133 580.02176025 434.46661133 580.02176025 433.79492188 579.27880859 C428.38974235 573.30658498 422.8940387 567.46947478 417.15625 561.8125 C415.30593906 559.93372273 413.58206675 558.00831382 411.875 556 C404.94701309 547.94157234 397.24921533 540.42496743 389.1484375 533.5546875 C386.53481114 531.22361534 384.0836676 528.74164464 381.625 526.25 C377.94352288 522.52402427 374.19204859 518.9514376 370.20703125 515.55078125 C367.69346422 513.37675798 365.25723771 511.12609512 362.8125 508.875 C358.37249216 504.82478708 353.80565719 500.99465878 349.12890625 497.22265625 C345.62832522 494.34116367 342.22242675 491.36255438 338.8125 488.375 C332.38410123 482.76484954 325.78619241 477.43532266 319.03076172 472.22607422 C316.97172715 470.63128521 314.9247111 469.02187709 312.87890625 467.41015625 C302.48848422 459.24145662 291.90620544 451.39419917 281.125 443.75 C280.32835937 443.1828125 279.53171875 442.615625 278.7109375 442.03125 C266.39238945 433.27139361 253.88702809 424.85016774 241.125 416.75 C240.2995166 416.22583496 239.4740332 415.70166992 238.62353516 415.16162109 C215.07304663 400.26906357 190.80562072 386.66419106 166.125 373.75 C165.20396484 373.26611816 164.28292969 372.78223633 163.33398438 372.28369141 C134.89574619 357.42893175 105.12973804 345.05195191 75.125 333.75 C73.93003906 333.29931152 72.73507812 332.84862305 71.50390625 332.38427734 C46.01760104 322.85532572 19.98821624 314.99905986 -6.39892578 308.38378906 C-8.71111737 307.79194827 -11.01036092 307.16708733 -13.30859375 306.5234375 C-56.81134944 294.39915791 -102.27372522 288.6257777 -147.19168091 284.97143555 C-149.077727 284.81579336 -150.96333837 284.65483643 -152.84860229 284.48999023 C-171.05806791 282.90296144 -189.16227011 282.34833511 -207.4375 282.375 C-208.46650799 282.37513784 -208.46650799 282.37513784 -209.51630402 282.37527847 C-235.825736 282.37980402 -261.87469756 283.71014157 -288.04986572 286.45574951 C-290.84021355 286.74637683 -293.63150611 287.02531703 -296.42333984 287.30126953 C-320.28837876 289.68216911 -343.69143227 293.46713927 -367.16526794 298.37287903 C-372.04932812 299.39093621 -376.94036817 300.31349054 -381.8515625 301.19140625 C-391.05031174 302.8972104 -400.07478787 305.2048127 -409.125 307.5625 C-409.98815826 307.78609192 -410.85131653 308.00968384 -411.7406311 308.24005127 C-424.20748916 311.4719701 -436.62714752 314.75626681 -448.875 318.75 C-449.82085968 319.05710907 -449.82085968 319.05710907 -450.78582764 319.37042236 C-475.99004012 327.50732718 -475.99004012 327.50732718 -500.74536133 336.89575195 C-503.49682275 337.9994277 -506.26827912 339.04735872 -509.0390625 340.1015625 C-550.14818749 355.87650799 -590.38812091 375.46147577 -628.12792969 398.11328125 C-630.83442767 399.72582679 -633.55762142 401.3051381 -636.2890625 402.875 C-651.26298064 411.51624655 -665.58401457 421.0388871 -679.875 430.75 C-680.68759277 431.29962402 -681.50018555 431.84924805 -682.33740234 432.41552734 C-697.53982091 442.70182582 -712.42152779 453.43468863 -726.875 464.75 C-728.04944644 465.66540657 -729.22392665 466.58076982 -730.3984375 467.49609375 C-741.52756492 476.18746981 -752.42061238 485.14453424 -763.17041016 494.29980469 C-764.89619329 495.76803039 -766.62574272 497.23173533 -768.35546875 498.6953125 C-775.84422228 505.05091991 -783.1252363 511.59096874 -790.3046875 518.29296875 C-791.850004 519.72680719 -793.40659323 521.14704323 -794.96875 522.5625 C-800.85419609 527.89824807 -806.56219124 533.36013945 -812.109375 539.046875 C-814.27203777 541.16066404 -816.45334489 543.12924898 -818.74609375 545.09375 C-822.84963354 548.65021547 -826.52450924 552.49762671 -830.1875 556.5 C-834.66699374 561.34197026 -839.1814766 566.11474103 -843.875 570.75 C-847.3918345 574.23068496 -850.73198243 577.77158731 -853.94140625 581.53515625 C-855.974044 583.8634504 -858.06915403 586.12176733 -860.17871094 588.38012695 C-865.24704685 593.80677437 -870.07504594 599.3394074 -874.7265625 605.1328125 C-876.89011772 607.76841613 -879.1388956 610.29423375 -881.4375 612.8125 C-884.98821008 616.71766996 -888.32893696 620.72920566 -891.59375 624.875 C-893.32615832 627.05830911 -895.07466932 629.22172503 -896.84375 631.375 C-903.92833864 640.00334976 -910.74879353 648.78189732 -917.39111328 657.75439453 C-918.87430341 659.7490632 -920.37025693 661.73342657 -921.87109375 663.71484375 C-928.49283549 672.46304037 -934.90804459 681.33535388 -941.18554688 690.33349609 C-943.03850131 692.98386358 -944.90199716 695.62665922 -946.765625 698.26953125 C-954.64573458 709.47795027 -962.23126097 720.80419795 -969.44384766 732.45263672 C-970.88846247 734.77161068 -972.3527092 737.07691683 -973.82421875 739.37890625 C-986.20403876 758.75848367 -997.71382912 778.64720928 -1008.875 798.75 C-1009.39578125 799.68569824 -1009.9165625 800.62139648 -1010.453125 801.58544922 C-1029.01211949 835.08007015 -1045.85477294 869.53107009 -1060.875 904.75 C-1061.17599609 905.45572144 -1061.47699219 906.16144287 -1061.78710938 906.8885498 C-1065.42448744 915.42947569 -1069.00843812 923.99179382 -1072.55615234 932.5703125 C-1073.68908992 935.30177844 -1074.83404931 938.02748731 -1075.98828125 940.75 C-1079.74159041 949.64142193 -1083.01098953 958.64991695 -1086.14453125 967.77734375 C-1087.44666167 971.55620305 -1088.8235973 975.29814305 -1090.24560547 979.03320312 C-1096.44172947 995.3734895 -1101.57328288 1012.1039339 -1106.875 1028.75 C-1107.09345581 1029.43437134 -1107.31191162 1030.11874268 -1107.5369873 1030.82385254 C-1126.30049261 1089.61568442 -1139.63065769 1149.92565851 -1149.875 1210.75 C-1150.0269986 1211.63944305 -1150.17899719 1212.52888611 -1150.33560181 1213.44528198 C-1151.54208785 1220.56877379 -1152.61111082 1227.70289186 -1153.6015625 1234.859375 C-1153.75410492 1235.95219788 -1153.90664734 1237.04502075 -1154.06381226 1238.17095947 C-1154.54403404 1241.61376699 -1155.02205648 1245.05687555 -1155.5 1248.5 C-1155.8279787 1250.85418705 -1156.15610241 1253.20835391 -1156.484375 1255.5625 C-1157.28292411 1261.29143458 -1158.0796746 1267.02061704 -1158.875 1272.75 C-1161.29858634 1270.44055431 -1162.4006494 1268.8718815 -1163.33984375 1265.63671875 C-1163.70082153 1264.40091064 -1163.70082153 1264.40091064 -1164.0690918 1263.14013672 C-1164.3144165 1262.2482666 -1164.55974121 1261.35639648 -1164.8125 1260.4375 C-1165.20272339 1259.03395264 -1165.20272339 1259.03395264 -1165.60083008 1257.60205078 C-1177.0397519 1215.21969624 -1177.26523139 1170.25529737 -1177.13294983 1126.64142227 C-1177.12486223 1123.82705946 -1177.1199215 1121.01270468 -1177.11560059 1118.19833374 C-1177.06757612 1091.00725266 -1176.81502657 1063.88219347 -1174.875 1036.75 C-1174.80476624 1035.74445068 -1174.73453247 1034.73890137 -1174.66217041 1033.70288086 C-1174.11651664 1025.90378748 -1173.53885071 1018.10749061 -1172.9375 1010.3125 C-1172.81852356 1008.7585704 -1172.81852356 1008.7585704 -1172.69714355 1007.17324829 C-1171.73577811 994.82281944 -1170.39620922 982.60309856 -1168.55541992 970.3527832 C-1167.71703344 964.77135464 -1167.09454881 959.17440167 -1166.5 953.5625 C-1156.23464662 861.81763354 -1134.69977535 771.00304156 -1104.58599854 683.80944824 C-1103.88635587 681.78289294 -1103.18978611 679.75530197 -1102.49365234 677.72753906 C-1085.26078322 627.63364311 -1064.15457891 579.06905504 -1040.76623535 531.56176758 C-1039.93830489 529.87869075 -1039.11308283 528.19428235 -1038.28808594 526.50976562 C-1022.85929101 495.02962855 -1005.39841693 464.50632258 -986.875 434.75 C-986.31635254 433.85152344 -985.75770508 432.95304687 -985.18212891 432.02734375 C-960.97792143 393.23362984 -934.25548196 355.82336856 -905.26757812 320.45849609 C-903.42587934 318.19899257 -901.61885924 315.91280622 -899.8125 313.625 C-896.11006338 308.9774266 -892.24297556 304.48006601 -888.3581543 299.98510742 C-885.37240649 296.52381176 -882.4697882 293.01660256 -879.625 289.4375 C-874.99859857 283.73047926 -869.96612146 278.42859809 -864.89746094 273.11401367 C-861.45948953 269.50859746 -858.07885286 265.86950911 -854.77368164 262.14160156 C-849.83242383 256.6423581 -844.66612064 251.3967041 -839.43359375 246.17578125 C-838.45656576 245.19807686 -837.47968601 244.22022431 -836.50294495 243.24223328 C-834.47338709 241.21121562 -832.44206933 239.18198012 -830.40942383 237.15405273 C-827.825341 234.57568149 -825.24579657 231.9928237 -822.66755581 229.40861225 C-820.65746344 227.39488051 -818.64496364 225.3835682 -816.63176155 223.37294579 C-815.22365923 221.96581897 -813.81754192 220.55670666 -812.41148376 219.14753723 C-807.92555191 214.6778348 -803.39296706 210.33155336 -798.5788269 206.2157135 C-795.8302127 203.85122393 -793.20630448 201.35515829 -790.5625 198.875 C-785.6939425 194.34098306 -780.68167836 190.06507219 -775.4921875 185.8984375 C-772.85658387 183.73488228 -770.33076625 181.4861044 -767.8125 179.1875 C-763.00009075 174.8132693 -757.99300125 170.75922336 -752.875 166.75 C-751.88371094 165.96367188 -750.89242188 165.17734375 -749.87109375 164.3671875 C-734.53011992 152.21250499 -718.99016461 140.34350163 -702.91357422 129.17675781 C-700.86917231 127.74592132 -698.8409926 126.29465172 -696.81640625 124.8359375 C-685.45971735 116.67226124 -673.75629696 109.12563304 -661.875 101.75 C-660.79250977 101.07775391 -659.71001953 100.40550781 -658.59472656 99.71289062 C-588.77348168 56.50836276 -514.17179056 22.35081825 -432.875 -0.25 C-431.87327759 -0.52880005 -431.87327759 -0.52880005 -430.85131836 -0.81323242 C-381.49597812 -14.5145727 -330.89945005 -23.02467113 -279.875 -27.25 C-278.82575348 -27.33927765 -278.82575348 -27.33927765 -277.75531006 -27.43035889 C-192.81636471 -34.62192832 -105.35713705 -26.81510419 0 0 Z " fill="#FE3900" transform="translate(1184.875,873.25)"/>
<path d="M0 0 C1.61298652 -0.00702267 3.22597276 -0.01410948 4.83895874 -0.02125549 C9.9655599 -0.04065471 15.09211583 -0.04568968 20.21875 -0.046875 C21.09234413 -0.04731686 21.96593826 -0.04775871 22.86600494 -0.04821396 C49.26472148 -0.05521663 75.45717216 0.26074152 101.71875 3.203125 C103.37236416 3.38212873 105.02601103 3.56083061 106.6796875 3.73925781 C184.91517408 12.28956889 262.02636852 31.32119095 438.83398438 113.49316406 C441.62586608 115.14806754 444.42786286 116.78411888 447.234375 118.4140625 C466.6506997 129.72019012 485.65333833 141.68752051 503.86035156 154.86230469 C505.66776162 156.16633727 507.48409042 157.45664757 509.3046875 158.7421875 C518.23863511 165.05803715 527.00078495 171.59314633 535.71875 178.203125 C536.2844873 178.63093262 536.85022461 179.05874023 537.43310547 179.49951172 C550.66043624 189.51636389 563.48372309 200.03788507 576.09472656 210.81738281 C577.78589221 212.26041592 579.48249619 213.69687317 581.1796875 215.1328125 C588.67411385 221.49146849 595.95992247 228.03548757 603.14404297 234.74169922 C604.7028356 236.18835545 606.27261699 237.62184404 607.84765625 239.05078125 C613.52400783 244.20234485 619.03064808 249.47753533 624.41796875 254.93359375 C626.47917064 256.96679969 628.58481656 258.88111111 630.78125 260.765625 C636.58482332 265.75014563 642.00445131 271.13079937 646.96875 276.953125 C650.20216704 280.73048135 653.68598539 284.20967969 657.21875 287.703125 C661.27968609 291.72353165 665.22168211 295.76536679 668.921875 300.125 C670.78889476 302.28424894 672.71822906 304.37909188 674.66015625 306.47094727 C679.49460776 311.6800029 684.07990848 317.01644995 688.5390625 322.5546875 C690.69632399 325.17587619 692.93186 327.69466781 695.21875 330.203125 C699.92288303 335.37848379 704.33772747 340.75321736 708.71875 346.203125 C709.6444817 347.34769633 710.57026529 348.49222569 711.49609375 349.63671875 C721.55202164 362.10245463 731.26124968 374.82421619 740.78125 387.703125 C741.29800293 388.40083008 741.81475586 389.09853516 742.34716797 389.81738281 C752.51880999 403.64333911 762.22258744 417.7824215 771.71875 432.078125 C772.2419986 432.86471497 772.76524719 433.65130493 773.30435181 434.46173096 C785.67324667 453.06257611 797.49280337 471.88789329 808.71875 491.203125 C809.47671875 492.50636719 809.47671875 492.50636719 810.25 493.8359375 C852.62396261 566.88688345 887.09038383 643.93115358 980.61160278 1079.10107422 C980.68520449 1080.54501775 980.76399818 1081.98870312 980.84713745 1083.43212891 C982.0293939 1104.07592249 981.9061718 1124.74705614 981.90405273 1145.41699219 C981.90397165 1149.59346869 981.91090024 1153.7698351 981.92456055 1157.94628906 C982.02261957 1188.43915467 981.69662507 1218.73094328 977.71875 1249.015625 C977.55126845 1250.36643567 977.38460961 1251.71734859 977.21875 1253.06835938 C976.28253957 1260.49587261 975.15953666 1267.85645417 973.71875 1275.203125 C973.05875 1274.873125 972.39875 1274.543125 971.71875 1274.203125 C971.13049936 1271.10349665 970.6692633 1268.05966139 970.2734375 1264.93359375 C970.00306292 1262.93275094 969.73246339 1260.93193851 969.46166992 1258.93115234 C969.32087006 1257.86676941 969.18007019 1256.80238647 969.03500366 1255.70574951 C961.74680322 1200.94973496 950.58729017 1146.86442689 936.33398438 1093.5065918 C935.75433231 1091.33634688 935.17759218 1089.16534929 934.6015625 1086.99414062 C913.18529788 1006.46486811 882.38894401 928.92685892 845.71875 854.203125 C845.03304932 852.79885254 845.03304932 852.79885254 844.33349609 851.36621094 C838.33189458 839.09051748 831.94758589 827.05187801 825.32373047 815.10107422 C823.68958266 812.15046052 822.06556869 809.19440083 820.44140625 806.23828125 C804.54721142 777.44671491 787.19214286 749.4103357 768.71875 722.203125 C768.08404785 721.26557373 768.08404785 721.26557373 767.43652344 720.30908203 C760.07550422 709.45280461 752.45186197 698.79676115 744.71875 688.203125 C744.13657715 687.40406738 743.5544043 686.60500977 742.95458984 685.78173828 C731.80009396 670.48736664 720.16550238 655.66504111 708.19091797 641.00732422 C706.89603489 639.42039454 705.60584522 637.82963763 704.31640625 636.23828125 C696.05492326 626.06455626 687.52664338 616.12237985 678.71875 606.41796875 C676.92271471 604.42899998 675.15921697 602.41749306 673.40625 600.390625 C666.66889353 592.66386653 659.72680883 585.08581794 652.39868164 577.91552734 C650.71854909 576.2029202 649.16500459 574.42755044 647.609375 572.6015625 C643.37510443 567.73635942 638.85115663 563.18875289 634.28125 558.640625 C633.47365234 557.82916016 632.66605469 557.01769531 631.83398438 556.18164062 C627.50121145 551.85585041 623.08668611 547.70319292 618.44506836 543.71118164 C616.26422757 541.80606871 614.23460234 539.78100357 612.21875 537.703125 C608.90888302 534.35378771 605.51128051 531.20386544 601.9375 528.140625 C599.7350532 526.2173616 597.58617145 524.24266756 595.44311523 522.25366211 C590.31414186 517.49622358 585.0734467 512.96269796 579.62109375 508.57421875 C576.32911472 505.88480923 573.11880506 503.11130546 569.90625 500.328125 C563.63340068 494.91687451 557.19249349 489.76321078 550.640625 484.6953125 C548.57611141 483.09237715 546.52192524 481.47680442 544.46875 479.859375 C534.07906173 471.69295701 523.49960054 463.8445094 512.71875 456.203125 C511.49986084 455.3363916 511.49986084 455.3363916 510.25634766 454.45214844 C499.61803989 446.8978566 488.87681843 439.55443069 477.859375 432.56396484 C475.66136603 431.16664482 473.471064 429.7577782 471.28125 428.34765625 C451.91412842 415.92981641 431.95205569 404.56342434 411.64501953 393.76025391 C409.73264687 392.74264062 407.82208048 391.72162361 405.91357422 390.69677734 C334.7867932 352.52351821 257.3113187 325.76603064 108.84375 299.890625 C108.13714233 299.81508392 107.43053467 299.73954285 106.70251465 299.66171265 C101.38019769 299.10340958 96.05243776 298.63819688 90.71875 298.203125 C89.68806396 298.11698944 88.65737793 298.03085388 87.59545898 297.94210815 C67.17875196 296.2780223 46.87402001 295.83748389 26.40063858 295.88506699 C23.92695297 295.89072053 21.45327426 295.89353293 18.97958374 295.89614868 C-6.20944124 295.93483059 -31.21924401 296.4734581 -56.28125 299.203125 C-57.09956299 299.29033813 -57.91787598 299.37755127 -58.76098633 299.46740723 C-139.00410539 308.04974447 -217.73157375 327.7053933 -326.28125 374.203125 C-327.29445313 374.67959473 -328.30765625 375.15606445 -329.3515625 375.64697266 C-351.95616667 386.28670182 -373.91701686 397.7453898 -395.39941406 410.50341797 C-398.09537435 412.09349553 -400.80519366 413.65543997 -403.5234375 415.20703125 C-420.02149117 424.6822858 -435.7296775 435.32393509 -451.47625732 445.98266602 C-454.03417682 447.71222197 -456.5975601 449.43363357 -459.16015625 451.15625 C-467.5221793 456.80035321 -475.65211149 462.62890098 -483.57666016 468.87255859 C-485.4694953 470.35006526 -487.37922885 471.80358319 -489.29296875 473.25390625 C-502.05716243 482.9272977 -514.52034116 492.93255538 -526.70458984 503.32739258 C-529.9768032 506.11654556 -533.29852055 508.83043046 -536.65625 511.515625 C-542.64724041 516.38385293 -548.21660885 521.67471708 -553.828125 526.96875 C-556.40900709 529.39961311 -559.02788266 531.76864043 -561.71875 534.078125 C-564.99718486 536.89630443 -568.02897482 539.9061257 -571.03125 543.015625 C-572.88948096 544.82223843 -574.77734375 546.49461588 -576.74609375 548.17578125 C-582.13443174 552.85798373 -587.14640733 557.91856592 -592.18139648 562.97290039 C-593.8405232 564.63738777 -595.50493051 566.29645947 -597.16992188 567.95507812 C-602.23284407 573.01516485 -607.22418039 578.07893277 -611.84545898 583.55297852 C-613.41447698 585.35624202 -615.07495728 587.02988456 -616.78125 588.703125 C-619.79538582 591.67047823 -622.58042333 594.77657792 -625.33984375 597.98046875 C-627.56929061 600.53289383 -629.86126382 603.02200014 -632.15625 605.515625 C-636.30370258 610.05837185 -640.21357695 614.74432462 -644.07421875 619.53125 C-646.19748338 622.1017155 -648.39936849 624.56231863 -650.65625 627.015625 C-654.63633466 631.38820936 -658.29472497 635.94481791 -661.91577148 640.61303711 C-664.91653782 644.47870282 -667.97086153 648.29219636 -671.07519531 652.07519531 C-682.19571318 665.62729403 -692.50772617 679.75658789 -702.70947266 694.0078125 C-703.715295 695.41265166 -704.7226384 696.8164038 -705.73193359 698.21875 C-753.54324833 764.69259739 -794.07090267 837.02692024 -826.53515625 912.17285156 C-828.1272528 915.85648736 -829.74830898 919.52680737 -831.375 923.1953125 C-856.97974102 981.34838088 -876.85803006 1042.21274882 -892.63989258 1103.70922852 C-893.26668387 1106.14648509 -893.89929423 1108.5821643 -894.53320312 1111.01757812 C-906.76543821 1158.16754249 -916.2761799 1206.30065956 -922.67578125 1254.59375 C-922.84822609 1255.89131981 -922.84822609 1255.89131981 -923.02415466 1257.21510315 C-923.57731821 1261.39470038 -924.117996 1265.57523328 -924.63452148 1269.75952148 C-924.8240135 1271.24463433 -925.01354577 1272.72974204 -925.203125 1274.21484375 C-925.44434082 1276.17103638 -925.44434082 1276.17103638 -925.69042969 1278.16674805 C-926.28125 1281.203125 -926.28125 1281.203125 -928.28125 1283.203125 C-937.28633369 1241.9988548 -938.63113889 1200.77516287 -938.54199219 1158.7644043 C-938.53066343 1153.37677159 -938.53733943 1147.98933796 -938.54886913 1142.60171223 C-938.59762283 1115.7442242 -938.02993403 1089.00605184 -936.28125 1062.203125 C-936.20328186 1061.00791229 -936.12531372 1059.81269958 -936.04498291 1058.58126831 C-935.59000756 1051.84454658 -935.05500948 1045.11708267 -934.46875 1038.390625 C-934.38476959 1037.40772491 -934.30078918 1036.42482483 -934.21426392 1035.41213989 C-929.76857263 983.61225123 -922.45294669 932.18826181 -912.28125 881.203125 C-912.11236267 880.35397522 -911.94347534 879.50482544 -911.76947021 878.62994385 C-893.12899085 785.20008813 -864.29596246 693.2350888 -815.28125 586.203125 C-814.52400635 584.60621826 -814.52400635 584.60621826 -813.75146484 582.97705078 C-790.14866435 533.20279831 -763.64829271 484.99585493 -733.18457031 439.07568359 C-731.18469014 436.05739343 -729.19753836 433.03095041 -727.2109375 430.00390625 C-720.42792432 419.70529228 -713.51664664 409.58974937 -706.015625 399.80078125 C-703.3083579 396.26586937 -700.72334215 392.65305043 -698.15625 389.015625 C-693.37709973 382.26847774 -688.3722651 375.71691428 -683.28125 369.203125 C-682.85231445 368.65188965 -682.42337891 368.1006543 -681.98144531 367.53271484 C-671.49592485 354.058549 -660.752519 340.79631449 -649.65820312 327.81835938 C-648.24003654 326.15477957 -646.83049683 324.48416624 -645.421875 322.8125 C-639.51413715 315.82776936 -633.42408202 309.05619583 -627.15014648 302.39819336 C-624.21223998 299.2797199 -621.31649504 296.14772332 -618.53125 292.890625 C-615.19862872 289.01098256 -611.56905679 285.45704214 -607.90625 281.890625 C-605.84711202 279.78245993 -603.91749587 277.65484902 -601.99609375 275.42578125 C-598.13238987 270.97055549 -594.02360558 266.7979071 -589.84375 262.640625 C-589.13154297 261.92455078 -588.41933594 261.20847656 -587.68554688 260.47070312 C-583.61209402 256.40464982 -579.43293156 252.53490261 -575.07397461 248.77758789 C-572.6981006 246.69097323 -570.48658124 244.46805979 -568.28125 242.203125 C-564.7694845 238.65394343 -561.19116099 235.28344043 -557.3984375 232.0390625 C-554.87525545 229.8510633 -552.42570481 227.59019387 -549.96875 225.328125 C-545.52874216 221.27791208 -540.96190719 217.44778378 -536.28515625 213.67578125 C-532.78457522 210.79428867 -529.37867675 207.81567938 -525.96875 204.828125 C-519.54035123 199.21797454 -512.94244241 193.88844766 -506.18701172 188.67919922 C-504.12797715 187.08441021 -502.0809611 185.47500209 -500.03515625 183.86328125 C-489.64484264 175.69466686 -479.06359489 167.84556858 -468.28125 160.203125 C-467.46865723 159.62530273 -466.65606445 159.04748047 -465.81884766 158.45214844 C-454.48757383 150.40577948 -443.02528815 142.63302668 -431.28125 135.203125 C-430.40549316 134.64544434 -429.52973633 134.08776367 -428.62744141 133.51318359 C-354.42191564 86.30313844 -273.99564034 49.97058506 0 0 Z " fill="#FF8300" transform="translate(940.28125,1.796875)"/>
<path d="M0 0 C0.75432312 0.03675842 1.50864624 0.07351685 2.28582764 0.11138916 C32.44447388 1.62053537 62.18466055 5.27294494 92 10 C92.87869751 10.13921875 93.75739502 10.2784375 94.66271973 10.421875 C148.53669373 19.03384414 201.52725172 34.16685646 252.32568359 53.95996094 C255.19975404 55.07768415 258.07823149 56.18358112 260.95703125 57.2890625 C269.9013312 60.73727617 278.80752316 64.1836674 287.4609375 68.3203125 C290.24552371 69.64191523 293.03828321 70.92159501 295.8515625 72.1796875 C322.5195784 84.14713016 348.83181318 97.11778709 374 112 C375.49998535 112.88268555 375.49998535 112.88268555 377.03027344 113.78320312 C396.78149409 125.43183 416.30070746 137.46625303 435.07128906 150.64794922 C437.0499079 152.03498607 439.03619408 153.41051094 441.0234375 154.78515625 C451.80213094 162.27718163 462.24532189 170.18221902 472.64550781 178.18896484 C474.70506511 179.77314112 476.76892053 181.35136075 478.8359375 182.92578125 C488.51798506 190.3100864 497.89849901 198.02860217 507.16845703 205.92041016 C510.52739607 208.77496225 513.93205139 211.55916276 517.375 214.3125 C522.64826087 218.597507 527.59381939 223.19304013 532.52294922 227.86450195 C536.28340028 231.42566644 540.11967032 234.87307783 544.02807617 238.27099609 C555.51973443 248.34700498 566.31176044 259.20883014 577.125 270 C577.71149323 270.58390503 578.29798645 271.16781006 578.9022522 271.76940918 C590.42591654 283.25293403 590.42591654 283.25293403 595.57958984 289.36523438 C597.14261485 291.164137 598.7988852 292.83180361 600.5 294.5 C603.51413582 297.46735323 606.29917333 300.57345292 609.05859375 303.77734375 C611.28804061 306.32976883 613.58001382 308.81887514 615.875 311.3125 C619.92521292 315.75250784 623.75534122 320.31934281 627.52734375 324.99609375 C630.40883633 328.49667478 633.38744562 331.90257325 636.375 335.3125 C641.98644643 341.74238376 647.31759539 348.34182856 652.52832031 355.09863281 C654.1110899 357.14352491 655.70679524 359.1778432 657.3046875 361.2109375 C665.1743006 371.24098838 672.8267354 381.4129001 680.33251953 391.71777344 C681.87741001 393.83221504 683.43467495 395.93681418 684.99609375 398.0390625 C700.66466219 419.27017809 715.18575204 441.52440367 729 464 C729.63180176 465.02303223 730.26360352 466.04606445 730.91455078 467.10009766 C741.03151546 483.50617803 750.75795268 500.08106973 760 517 C760.86842529 518.58240479 760.86842529 518.58240479 761.75439453 520.19677734 C779.03762223 551.7634293 794.84539425 583.96363334 809.12945557 616.99328613 C810.46450663 620.07074591 811.81742832 623.14024404 813.16796875 626.2109375 C837.87227171 682.71417445 857.45827244 741.32770769 873.17773438 800.92285156 C873.99836624 803.993886 874.84635871 807.05605328 875.703125 810.1171875 C889.258502 858.78321312 898.12456213 908.89945855 905.25927734 958.86425781 C905.82754624 962.8333634 906.42255536 966.7975343 907.03399658 970.76019287 C913.20640396 1010.84136945 916.30642909 1051.49627428 918 1092 C918.05639648 1093.22009766 918.11279297 1094.44019531 918.17089844 1095.69726562 C920.41937054 1145.16365194 920.37584331 1195.29854229 915 1244.5625 C914.87461853 1245.72549622 914.87461853 1245.72549622 914.7467041 1246.9119873 C914.50913799 1249.06913407 914.25804626 1251.22412333 914 1253.37890625 C913.855625 1254.5913501 913.71125 1255.80379395 913.5625 1257.05297852 C913 1260 913 1260 911 1263 C910.93006836 1262.45290878 910.86013672 1261.90581757 910.78808594 1261.34214783 C898.4220697 1164.85503871 878.13549848 1070.77142133 795 852 C794.46052734 850.85934082 793.92105469 849.71868164 793.36523438 848.54345703 C781.30407904 823.11 768.58761725 798.06836432 754.53222656 773.67041016 C753.03599307 771.0627298 751.55810284 768.44554898 750.0859375 765.82421875 C731.85842396 733.44712812 711.49459288 702.2931081 690 672 C689.44151367 671.21125488 688.88302734 670.42250977 688.30761719 669.60986328 C673.84357956 649.2326633 658.71044187 629.20360543 642.58203125 610.109375 C641 608 641 608 641 606 C640.34 606 639.68 606 639 606 C636 602.53846154 636 602.53846154 636 600 C635.34 600 634.68 600 634 600 C632.41466298 598.28667246 630.90458785 596.50310953 629.4375 594.6875 C628.63183594 593.70136719 627.82617188 592.71523437 626.99609375 591.69921875 C625 589 625 589 624 586 C623.34 586 622.68 586 622 586 C617 580.52380952 617 580.52380952 617 578 C616.34 578 615.68 578 615 578 C613.37890625 576.3203125 613.37890625 576.3203125 611.5625 574.125 C609.41599116 571.53806278 607.83223438 569.88815626 605 568 C604.5875 567.278125 604.175 566.55625 603.75 565.8125 C601.70339272 562.52330973 599.24427683 560.18254421 596.42578125 557.55078125 C595 556 595 556 595 554 C594.401875 553.938125 593.80375 553.87625 593.1875 553.8125 C591 553 591 553 589.78076172 550.88330078 C587.43187202 547.08012182 584.48006832 544.19397732 581.3203125 541.0546875 C580.67053436 540.40299591 580.02075623 539.75130432 579.35128784 539.0798645 C577.98030196 537.70752159 576.60680298 536.33768524 575.23095703 534.97021484 C573.13210586 532.88206962 571.04413123 530.78347691 568.95703125 528.68359375 C567.62043244 527.34831662 566.28321332 526.01366006 564.9453125 524.6796875 C564.01381882 523.74212112 564.01381882 523.74212112 563.06350708 522.78561401 C559.89285622 519.64881025 556.93251742 517.17397135 553 515 C551 512.94140625 551 512.94140625 549 510.5625 C541.04810068 501.50103333 531.98993419 493.67176634 522.6015625 486.13671875 C520.05013271 484.04117506 517.61673227 481.86036845 515.1875 479.625 C510.8122041 475.64244719 506.25270734 471.9818193 501.58129883 468.35888672 C497.78478689 465.41217395 494.04170985 462.41193977 490.33081055 459.3581543 C483.68843881 453.89650124 476.93759315 448.60347777 470.0625 443.4375 C469.31339355 442.87321289 468.56428711 442.30892578 467.79248047 441.72753906 C453.93214332 431.38261051 439.64920069 421.63682957 425.25 412.0625 C424.07195801 411.27854858 424.07195801 411.27854858 422.87011719 410.47875977 C393.64673392 391.04882284 363.57131687 373.51784646 332.27441406 357.66503906 C329.36865102 356.18745899 326.47532729 354.68894067 323.5859375 353.1796875 C311.96704726 347.16650933 300.06729439 341.87340338 288.0625 336.6875 C286.8856665 336.1791008 286.8856665 336.1791008 285.68505859 335.66043091 C208.90341455 302.5713806 128.09370675 281.16330777 45 272 C43.60587891 271.84023682 43.60587891 271.84023682 42.18359375 271.67724609 C36.1305567 270.98992605 30.07444952 270.45807648 24 270 C22.84999512 269.90976562 21.69999023 269.81953125 20.51513672 269.7265625 C-20.45234274 266.63585932 -62.0537258 266.51598836 -103 270 C-103.73430237 270.0608075 -104.46860474 270.12161499 -105.22515869 270.18426514 C-142.40439577 273.27435612 -179.65780714 278.49037503 -216 287 C-217.15417419 287.26879974 -217.15417419 287.26879974 -218.33166504 287.54302979 C-282.54777298 302.53982305 -343.55968735 324.54412361 -403 353 C-403.91233398 353.43618652 -404.82466797 353.87237305 -405.76464844 354.32177734 C-418.60010921 360.49869233 -430.97112832 367.4018929 -443.32666016 374.48193359 C-446.42791072 376.24299076 -449.55523133 377.95153828 -452.6887207 379.65429688 C-486.77130662 398.24123648 -519.15401491 420.47934029 -549.91015625 444.10546875 C-553.74785368 447.05161628 -557.61450771 449.95406524 -561.50292969 452.83276367 C-568.20494549 457.79864604 -574.65788034 462.96580681 -580.9765625 468.41015625 C-583.84284949 470.86538658 -586.75225284 473.25295853 -589.6875 475.625 C-594.13903808 479.24834495 -598.42382455 483.01963872 -602.66796875 486.8828125 C-604.75823889 488.78051169 -606.86986115 490.64733415 -609 492.5 C-613.7155464 496.61316123 -618.36325831 500.79837543 -623 505 C-623.85585693 505.76900635 -624.71171387 506.5380127 -625.59350586 507.33032227 C-635.6954229 516.51661618 -645.32626391 526.17290206 -654.96777344 535.83740234 C-657.40143703 538.27680257 -659.83962109 540.71162769 -662.27912712 543.14518356 C-664.64425972 545.5058058 -667.00554575 547.87026038 -669.3671875 550.234375 C-670.2308493 551.09601257 -671.09451111 551.95765015 -671.98434448 552.84539795 C-676.3201444 557.19789762 -680.51923191 561.6094466 -684.51519775 566.27708435 C-686.88800264 569.03040903 -689.38867265 571.6621194 -691.875 574.3125 C-696.41348524 579.18585549 -700.69348797 584.20303977 -704.86328125 589.3984375 C-706.95882494 591.94986729 -709.13963155 594.38326773 -711.375 596.8125 C-715.33580675 601.16323073 -718.96959283 605.69807896 -722.56860352 610.34619141 C-725.65528873 614.32166833 -728.82239698 618.2155994 -732.05004883 622.07739258 C-739.49759997 630.99402708 -746.44077865 640.20659263 -753.25878906 649.61035156 C-754.96843799 651.9566841 -756.69526477 654.28912322 -758.4296875 656.6171875 C-810.24068808 726.20163634 -853.76495441 802.5463334 -888.30322266 882.10253906 C-889.77061978 885.48047597 -891.26112423 888.8475938 -892.76171875 892.2109375 C-929.37257402 974.57634795 -955.32508671 1062.48451703 -980 1190 C-980.16438568 1191.00845978 -980.16438568 1191.00845978 -980.33209229 1192.03729248 C-984.19380196 1215.77915971 -987.92960131 1239.57662475 -990.60546875 1263.484375 C-991.03678328 1267.32777184 -991.51405674 1271.16316102 -992 1275 C-994.91508296 1270.62737556 -995.16487233 1266.14240711 -995.9375 1261 C-996.10934814 1259.8651416 -996.28119629 1258.7302832 -996.45825195 1257.56103516 C-997.85794758 1247.85864383 -998.8456443 1238.13949925 -999.6875 1228.375 C-999.74807587 1227.68615723 -999.80865173 1226.99731445 -999.87106323 1226.28759766 C-1001.98602999 1201.87222075 -1002.20639992 1177.42614843 -1002.1875 1152.9375 C-1002.18723312 1152.16029099 -1002.18696625 1151.38308197 -1002.18669128 1150.58232117 C-1002.17498757 1123.34673113 -1001.73476875 1096.18823251 -1000 1069 C-999.93683594 1068.00019104 -999.87367188 1067.00038208 -999.80859375 1065.97027588 C-995.92271262 1005.18552311 -987.44114281 944.80993772 -976 885 C-975.63865967 883.09299316 -975.63865967 883.09299316 -975.27001953 881.14746094 C-971.41539092 861.12265193 -966.45805489 841.35336678 -961.531353 821.57169724 C-961.00891588 819.47331093 -960.48770687 817.37462225 -959.96658325 815.27590942 C-955.90299156 798.93326104 -951.615663 782.68151563 -946.76647949 766.55142212 C-946.05771535 764.19212025 -945.35734253 761.83056129 -944.66113281 759.4675293 C-939.58157523 742.2466024 -934.19526326 725.17252739 -928.16064453 708.25830078 C-926.92859416 704.79954096 -925.71175106 701.33564694 -924.49609375 697.87109375 C-919.99691961 685.09633023 -915.32684422 672.42858431 -910.18261719 659.89990234 C-909.05897148 657.1446043 -907.95051641 654.38353965 -906.84690857 651.62016296 C-896.47273426 625.64610049 -885.16819784 600.2053688 -872.9296875 575.046875 C-870.83199396 570.73353455 -868.77638342 566.40436716 -866.76220703 562.05151367 C-862.60892524 553.07978439 -858.08057116 544.33278022 -853.40673828 535.62207031 C-852.43893318 533.81814341 -851.47392043 532.01271653 -850.51123047 530.20605469 C-842.36466731 514.92128098 -833.83212164 499.89823849 -825 485 C-824.4858252 484.12891602 -823.97165039 483.25783203 -823.44189453 482.36035156 C-809.2199759 458.28536923 -793.81745443 435.0462731 -778 412 C-777.38850098 411.10845215 -776.77700195 410.2169043 -776.14697266 409.29833984 C-769.04165296 398.98052014 -761.51343058 389.00816148 -753.8828125 379.07421875 C-750.99232033 375.30895379 -748.14351438 371.51635196 -745.32006836 367.70068359 C-738.52978759 358.53455024 -731.3318565 349.73656812 -724 341 C-723.50612793 340.41089844 -723.01225586 339.82179688 -722.50341797 339.21484375 C-719.80659275 336.00287368 -717.09573423 332.80320741 -714.37402344 329.61230469 C-712.92609978 327.91328411 -711.48259688 326.2105632 -710.0390625 324.5078125 C-704.37948264 317.84953686 -698.61717609 311.31522512 -692.66796875 304.9140625 C-690.66482528 302.72614884 -688.70462073 300.52033785 -686.76123047 298.28051758 C-675.95631153 285.91740587 -664.40392197 274.24009022 -652.78149414 262.65112305 C-650.5360842 260.41114814 -648.29617161 258.16577304 -646.05664062 255.91992188 C-644.60188354 254.46582458 -643.14681682 253.01203697 -641.69140625 251.55859375 C-641.03604385 250.90120712 -640.38068146 250.2438205 -639.70545959 249.56651306 C-635.87463329 245.75480287 -631.93770632 242.12248982 -627.83856201 238.60044861 C-624.7008612 235.86911354 -621.70622009 232.98625658 -618.6875 230.125 C-613.4605134 225.20506227 -608.14137138 220.54625318 -602.53125 216.06640625 C-599.99861847 213.99887218 -597.5926884 211.83886659 -595.1875 209.625 C-590.73070676 205.56373833 -586.07037032 201.84586478 -581.30883789 198.15454102 C-577.5084158 195.20355865 -573.7959942 192.17486465 -570.125 189.0625 C-563.65530213 183.63547471 -556.92402309 178.59739495 -550.13183594 173.58300781 C-548.04807914 172.03570146 -545.97981533 170.46967058 -543.9140625 168.8984375 C-507.82950113 141.64079128 -468.79708618 117.76679535 -428.91308594 96.55273438 C-426.11572196 95.06168217 -423.32714166 93.55519663 -420.5390625 92.046875 C-387.58607771 74.37206538 -352.58241657 59.34029187 -317.25292969 47.12548828 C-314.33300807 46.11521819 -311.41693763 45.09450185 -308.50201416 44.06991577 C-287.43649081 36.67022532 -266.36980975 30.48176041 -244.73706055 24.97070312 C-242.05501603 24.27404088 -239.38184424 23.56045889 -236.71020508 22.82617188 C-224.38703476 19.46166778 -211.98899322 16.85890634 -199.4375 14.5 C-197.90073105 14.20919052 -197.90073105 14.20919052 -196.33291626 13.9125061 C-131.5334124 1.68288197 -65.91643381 -3.21485695 0 0 Z " fill="#FE5400" transform="translate(1008,577)"/>
</svg>
